<?xml version="1.0" encoding="UTF-8" standalone="no"?>
<svg
   xmlns:dc="http://purl.org/dc/elements/1.1/"
   xmlns:cc="http://creativecommons.org/ns#"
   xmlns:rdf="http://www.w3.org/1999/02/22-rdf-syntax-ns#"
   xmlns:svg="http://www.w3.org/2000/svg"
   xmlns="http://www.w3.org/2000/svg"
   xmlns:xlink="http://www.w3.org/1999/xlink"
   xmlns:sodipodi="http://sodipodi.sourceforge.net/DTD/sodipodi-0.dtd"
   xmlns:inkscape="http://www.inkscape.org/namespaces/inkscape"
   inkscape:version="1.0.1 (3bc2e813f5, 2020-09-07)"
   sodipodi:docname="aerelia-logo3-white.svg"
   id="svg28"
   viewBox="0 0 263.80117 175.68014"
   version="1.1"
   height="175.68385mm"
   width="263.79785mm">
  <sodipodi:namedview
     inkscape:current-layer="g26"
     inkscape:window-maximized="1"
     inkscape:window-y="-9"
     inkscape:window-x="-9"
     inkscape:cy="395.66703"
     inkscape:cx="826.43785"
     inkscape:zoom="0.52093226"
     showgrid="false"
     id="namedview30"
     inkscape:window-height="1001"
     inkscape:window-width="1920"
     inkscape:pageshadow="2"
     inkscape:pageopacity="0"
     guidetolerance="10"
     gridtolerance="10"
     objecttolerance="10"
     borderopacity="1"
     bordercolor="#666666"
     pagecolor="#ffffff"
     inkscape:document-rotation="0" />
  <defs
     id="defs10">
    <linearGradient
       id="linearGradient883"
       inkscape:collect="always">
      <stop
         id="stop879"
         offset="0"
         style="stop-color:#ffffff;stop-opacity:1;" />
      <stop
         id="stop881"
         offset="1"
         style="stop-color:#ffffff;stop-opacity:0;" />
    </linearGradient>
    <linearGradient
       id="linearGradient875"
       inkscape:collect="always">
      <stop
         id="stop871"
         offset="0"
         style="stop-color:#ffffff;stop-opacity:1;" />
      <stop
         id="stop873"
         offset="1"
         style="stop-color:#ffffff;stop-opacity:0;" />
    </linearGradient>
    <linearGradient
       gradientUnits="userSpaceOnUse"
       gradientTransform="matrix(0.26458,0,0,0.26458,14.219,39.663)"
       y2="376.26001"
       y1="376.26001"
       x2="551.69"
       x1="77.480003"
       id="b">
      <stop
         id="stop2"
         offset="0" />
    </linearGradient>
    <linearGradient
       gradientUnits="userSpaceOnUse"
       y2="100"
       y1="100"
       x2="173.12"
       x1="44.875999"
       id="a">
      <stop
         id="stop5"
         offset="0"
         stop-color="#e5e5e5" />
      <stop
         id="stop7"
         offset="1"
         stop-opacity="0"
         stop-color="#e5e5e5" />
    </linearGradient>
    <linearGradient
       gradientUnits="userSpaceOnUse"
       y2="157.08449"
       x2="152.86652"
       y1="157.08449"
       x1="53.414312"
       id="linearGradient877"
       xlink:href="#linearGradient875"
       inkscape:collect="always" />
    <linearGradient
       gradientUnits="userSpaceOnUse"
       y2="156.73689"
       x2="132.3027"
       y1="156.73689"
       x1="34.715"
       id="linearGradient885"
       xlink:href="#linearGradient883"
       inkscape:collect="always" />
  </defs>
  <metadata
     id="metadata12">
    <rdf:RDF>
      <cc:Work
         rdf:about="">
        <dc:format>image/svg+xml</dc:format>
        <dc:type
           rdf:resource="http://purl.org/dc/dcmitype/StillImage" />
        <dc:title></dc:title>
      </cc:Work>
    </rdf:RDF>
  </metadata>
  <g
     id="g26"
     transform="translate(28.81537,-95.407662)">
    <path
       id="path14"
       style="mix-blend-mode:normal;fill:url(#linearGradient877);fill-opacity:1;stroke:none"
       stroke-width="0.777783"
       stroke="#000000"
       fill="url(#a)"
       d="M 70.984594,195.25195 C 81.560115,188.06523 89.438283,178.86016 90.634514,171.04966 85.26423,177.2738 77.416085,181.34129 67.1369,185.0171 Z m 17.053679,9.40029 c 7.02035,-10.68675 10.775411,-22.20572 8.891619,-29.88011 -2.579596,7.80584 -8.274059,14.56711 -16.364562,21.89616 z m 19.352807,2.15835 c 2.39627,-12.55965 1.45764,-24.6394 -3.2194,-31.00789 0.60375,8.19861 -2.06953,16.62434 -6.739262,26.49208 z m 18.70569,-5.41198 c -2.59259,-12.52075 -8.08273,-23.32183 -14.84089,-27.41608 3.69525,7.34336 4.44994,16.15067 3.91171,27.05441 z m 15.21111,-12.15831 c -7.18672,-10.57552 -16.39179,-18.45368 -24.20229,-19.64992 6.22414,5.37029 10.29163,13.21843 13.96744,23.49762 z m 9.40029,-17.05367 c -10.68675,-7.02036 -22.20572,-10.77542 -29.88011,-8.89162 7.80584,2.57959 14.56711,8.27406 21.89616,16.36456 z m 2.15835,-19.35281 c -12.55965,-2.39627 -24.6394,-1.45764 -31.00789,3.2194 8.19861,-0.60375 16.62434,2.06953 26.49208,6.73926 z m -5.41198,-18.70569 c -12.52075,2.59258 -23.32183,8.08272 -27.41608,14.84088 7.34336,-3.69524 16.15067,-4.44993 27.05442,-3.9117 z m -12.15831,-15.21111 c -10.57552,7.18672 -18.45368,16.39178 -19.64991,24.20229 5.37028,-6.22414 13.21842,-10.29163 23.49761,-13.96744 z m -17.05367,-9.40029 c -7.02035,10.68674 -10.77541,22.20572 -8.89162,29.8801 2.57959,-7.80583 8.27406,-14.5671 16.36456,-21.89615 z m -19.352809,-2.15835 c -2.396273,12.55965 -1.457644,24.6394 3.219399,31.00789 -0.60375,-8.19861 2.06953,-16.62434 6.73926,-26.49208 z m -18.70569,5.41197 c 2.592585,12.52076 8.082724,23.32184 14.840884,27.41609 -3.695249,-7.34336 -4.449932,-16.15067 -3.911706,-27.05442 z m -15.21111,12.15831 c 7.186718,10.57552 16.391785,18.45369 24.202285,19.64992 -6.224133,-5.37028 -10.291629,-13.21843 -13.967433,-23.49761 z m -9.40029,17.05368 c 10.686744,7.02035 22.205716,10.77541 29.880104,8.89162 -7.805834,-2.5796 -14.567105,-8.27406 -21.896157,-16.36456 z m -2.158349,19.35281 c 12.559646,2.39627 24.6394,1.45764 31.00789,-3.2194 -8.198614,0.60375 -16.624342,-2.06953 -26.492079,-6.73926 z m 5.411973,18.70569 c 12.520756,-2.59259 23.321834,-8.08273 27.416086,-14.84089 -7.343364,3.69525 -16.150672,4.44993 -27.054417,3.91171 z" />
    <path
       style="fill:url(#linearGradient885);fill-opacity:1;stroke:none"
       id="path16"
       stroke-width="0.777783"
       stroke="url(#b)"
       opacity="0.87"
       fill-rule="evenodd"
       fill="#e5e5e5"
       d="M 96.047108,95.404784 A 61.332108,61.332108 0 0 0 34.715,156.73689 61.332108,61.332108 0 0 0 96.047108,218.069 a 61.332108,61.332108 0 0 0 33.695132,-10.08552 57.989195,57.989195 0 0 1 -27.43786,6.90197 57.989195,57.989195 0 0 1 -57.9892,-57.98919 57.989195,57.989195 0 0 1 57.9892,-57.989195 57.989195,57.989195 0 0 1 29.99832,8.361945 61.332108,61.332108 0 0 0 -36.255592,-11.863526 z" />
    <path
       id="path18"
       stroke-width="0.49121"
       fill-rule="evenodd"
       fill-opacity="0.44716"
       fill="#ff0000"
       display="none"
       d="M 152.39,99.817 A 46.117,46.117 0 0 1 106.273,145.934 46.117,46.117 0 0 1 60.156,99.817 46.117,46.117 0 0 1 106.273,53.7 46.117,46.117 0 0 1 152.39,99.817 Z" />
    <g
       aria-label="aerelia"
       id="text22"
       style="font-style:normal;font-variant:normal;font-weight:normal;font-stretch:normal;font-size:63.5008px;line-height:1.25;font-family:Michroma;-inkscape-font-specification:'Michroma, Normal';font-variant-ligatures:normal;font-variant-caps:normal;font-variant-numeric:normal;font-variant-east-asian:normal;fill:#ffffff;fill-opacity:1;stroke-width:0.26458">
      <path
         d="m 6.9038305,265.44772 q -0.093019,0.37208 -1.3952813,1.86038 -0.9301875,1.11622 -2.4805,1.9844 -1.5503126,0.83717 -4.1548376,1.30226 -2.5735188,0.4961 -6.7903689,0.4961 -5.6121317,0 -9.5809317,-0.58912 -3.9688,-0.55811 -6.480306,-1.73635 -2.511506,-1.20924 -3.689744,-3.06962 -1.147231,-1.86037 -1.147231,-4.43389 0,-2.69754 0.620125,-4.55792 0.651131,-1.89138 1.860375,-3.16264 1.24025,-1.27125 2.9766,-1.9844 1.73635,-0.71314 3.937794,-1.08522 2.23245,-0.37207 4.867981,-0.46509 2.635531,-0.093 5.6121315,-0.093 4.2478563,0 7.1004313,0.37208 2.8525751,0.34106 4.6509376,0.89918 1.8293688,0.5271 2.7595563,1.14723 0.9301875,0.62012 1.3332688,1.14723 0,-3.4727 -0.3100625,-5.92219 -0.2790563,-2.4495 -0.9611938,-4.09283 -0.6511313,-1.64333 -1.7053438,-2.60452 -1.0542125,-0.9922 -2.604525,-1.4883 -1.51930629,-0.4961 -3.5657188,-0.62013 -2.0464126,-0.15503 -4.6819439,-0.15503 -4.0928247,0 -6.7903687,0.21704 -2.697544,0.18604 -4.278863,0.77516 -1.581318,0.58912 -2.23245,1.64333 -0.651131,1.02321 -0.651131,2.69754 h -5.9532 q 0,-2.82156 0.9922,-4.77496 1.023206,-1.95339 3.348675,-3.16264 2.356475,-1.24025 6.170244,-1.79836 3.813769,-0.55811 9.3948937,-0.55811 5.4571001,0 9.2398627,0.89918 3.7827626,0.89918 6.1082314,3.16264 2.3564752,2.26345 3.3796812,6.10823 1.054213,3.81377 1.054213,9.67395 v 16.8674 H 6.9038305 Z m -13.8287878,0.93019 q 3.9377939,0 6.57332516,-0.37207 2.66653754,-0.37208 4.27886254,-1.11623 1.6123251,-0.74415 2.2944626,-1.86037 0.6821375,-1.11623 0.6821375,-2.60453 0,-1.4883 -0.8061625,-2.51151 -0.7751563,-1.05421 -2.6355313,-1.70534 -1.8293688,-0.65113 -4.8679814,-0.93019 -3.0386125,-0.31006 -7.5035126,-0.31006 -4.4648997,0 -7.2244567,0.15503 -2.72855,0.15503 -4.21685,0.71314 -1.4883,0.55812 -2.015406,1.64334 -0.4961,1.08522 -0.4961,2.94559 0,1.86038 0.527106,3.03861 0.558113,1.14723 2.23245,1.79837 1.674338,0.65113 4.805969,0.89918 3.162638,0.21704 8.3716877,0.21704 z"
         style="font-style:normal;font-variant:normal;font-weight:normal;font-stretch:normal;font-size:63.5008px;font-family:Michroma;-inkscape-font-specification:'Michroma, Normal';font-variant-ligatures:normal;font-variant-caps:normal;font-variant-numeric:normal;font-variant-east-asian:normal;fill:#ffffff;fill-opacity:1;stroke-width:0.26458"
         id="path896" />
      <path
         d="m 41.630833,271.02885 q -5.9532,0 -10.108038,-0.80616 -4.154837,-0.83717 -6.759362,-2.85258 -2.604526,-2.01541 -3.782763,-5.39509 -1.178238,-3.37968 -1.178238,-8.49571 0,-5.86018 1.178238,-9.67395 1.178237,-3.84478 3.782763,-6.10823 2.604525,-2.26346 6.759362,-3.16264 4.154838,-0.89918 10.108038,-0.89918 4.247856,0 7.348481,0.62012 3.131631,0.62013 5.333075,1.79837 2.23245,1.17823 3.596725,2.85257 1.395282,1.67434 2.170438,3.53471 0.806162,1.82937 1.085219,4.30987 0.310062,2.4805 0.310062,5.24006 l -0.4961,1.9844 h -35.2231 q 0,4.09282 0.806162,6.72836 0.806163,2.60452 2.666538,3.81377 1.860375,1.20924 4.898987,1.55031 3.038613,0.31006 7.503513,0.31006 4.092825,0 6.759362,-0.21704 2.697544,-0.24805 4.278863,-0.89918 1.581319,-0.65114 2.201444,-1.79837 0.651131,-1.17823 0.651131,-3.03861 h 5.9532 q 0,2.88358 -1.023206,4.92999 -0.9922,2.01541 -3.317669,3.28667 -2.325469,1.24025 -6.139238,1.79836 -3.782762,0.58912 -9.363887,0.58912 z m 0,-32.43254 q -2.9766,0 -5.333075,0.12402 -2.325469,0.12403 -4.092825,0.55812 -1.73635,0.40308 -2.9766,1.20924 -1.24025,0.77516 -2.015407,1.86038 -0.74415,1.05421 -1.116225,3.0076 -0.341068,1.92239 -0.341068,4.65094 h 29.766 q 0,-3.62773 -0.775156,-5.67414 -0.775156,-2.07742 -2.449494,-3.41069 -1.674338,-1.33327 -4.309869,-1.82937 -2.635531,-0.4961 -6.356281,-0.4961 z"
         style="font-style:normal;font-variant:normal;font-weight:normal;font-stretch:normal;font-size:63.5008px;font-family:Michroma;-inkscape-font-specification:'Michroma, Normal';font-variant-ligatures:normal;font-variant-caps:normal;font-variant-numeric:normal;font-variant-east-asian:normal;fill:#ffffff;fill-opacity:1;stroke-width:0.26458"
         id="path898" />
      <path
         d="m 100.17063,246.25485 q 0,-2.23245 -0.341068,-3.68974 -0.310062,-1.4883 -1.519306,-2.35648 -1.209244,-0.89918 -3.596725,-1.24025 -2.356475,-0.37207 -6.4493,-0.37207 -3.999807,0 -6.511313,0.71314 -2.511506,0.68214 -3.937794,1.9534 -1.426287,1.27125 -1.953394,3.03861 -0.4961,1.76736 -0.4961,3.93779 v 22.10746 h -5.9532 v -35.7192 h 5.9532 v 5.67414 q 0.310063,-0.96119 1.147232,-2.10842 0.837168,-1.17824 2.542512,-2.17044 1.705344,-1.02321 4.402888,-1.70534 2.72855,-0.68214 6.790369,-0.68214 4.650937,0 7.565525,0.83717 2.914584,0.80616 4.526914,2.41849 1.64333,1.58131 2.20144,3.93779 0.58912,2.35647 0.58912,5.42609 z"
         style="font-style:normal;font-variant:normal;font-weight:normal;font-stretch:normal;font-size:63.5008px;font-family:Michroma;-inkscape-font-specification:'Michroma, Normal';font-variant-ligatures:normal;font-variant-caps:normal;font-variant-numeric:normal;font-variant-east-asian:normal;fill:#ffffff;fill-opacity:1;stroke-width:0.26458"
         id="path900" />
      <path
         d="m 129.93663,271.02885 q -5.9532,0 -10.10803,-0.80616 -4.15484,-0.83717 -6.75937,-2.85258 -2.60452,-2.01541 -3.78276,-5.39509 -1.17824,-3.37968 -1.17824,-8.49571 0,-5.86018 1.17824,-9.67395 1.17824,-3.84478 3.78276,-6.10823 2.60453,-2.26346 6.75937,-3.16264 4.15483,-0.89918 10.10803,-0.89918 4.24786,0 7.34849,0.62012 3.13163,0.62013 5.33307,1.79837 2.23245,1.17823 3.59673,2.85257 1.39528,1.67434 2.17043,3.53471 0.80617,1.82937 1.08522,4.30987 0.31006,2.4805 0.31006,5.24006 l -0.4961,1.9844 h -35.2231 q 0,4.09282 0.80617,6.72836 0.80616,2.60452 2.66653,3.81377 1.86038,1.20924 4.89899,1.55031 3.03861,0.31006 7.50351,0.31006 4.09283,0 6.75937,-0.21704 2.69754,-0.24805 4.27886,-0.89918 1.58132,-0.65114 2.20144,-1.79837 0.65113,-1.17823 0.65113,-3.03861 h 5.9532 q 0,2.88358 -1.0232,4.92999 -0.9922,2.01541 -3.31767,3.28667 -2.32547,1.24025 -6.13924,1.79836 -3.78276,0.58912 -9.36389,0.58912 z m 0,-32.43254 q -2.9766,0 -5.33307,0.12402 -2.32547,0.12403 -4.09283,0.55812 -1.73635,0.40308 -2.9766,1.20924 -1.24025,0.77516 -2.0154,1.86038 -0.74415,1.05421 -1.11623,3.0076 -0.34107,1.92239 -0.34107,4.65094 h 29.766 q 0,-3.62773 -0.77515,-5.67414 -0.77516,-2.07742 -2.4495,-3.41069 -1.67433,-1.33327 -4.30986,-1.82937 -2.63554,-0.4961 -6.35629,-0.4961 z"
         style="font-style:normal;font-variant:normal;font-weight:normal;font-stretch:normal;font-size:63.5008px;font-family:Michroma;-inkscape-font-specification:'Michroma, Normal';font-variant-ligatures:normal;font-variant-caps:normal;font-variant-numeric:normal;font-variant-east-asian:normal;fill:#ffffff;fill-opacity:1;stroke-width:0.26458"
         id="path902" />
      <path
         d="m 159.70263,222.72111 h 5.9532 v 47.6256 h -5.9532 z"
         style="font-style:normal;font-variant:normal;font-weight:normal;font-stretch:normal;font-size:63.5008px;font-family:Michroma;-inkscape-font-specification:'Michroma, Normal';font-variant-ligatures:normal;font-variant-caps:normal;font-variant-numeric:normal;font-variant-east-asian:normal;fill:#ffffff;fill-opacity:1;stroke-width:0.26458"
         id="path904" />
      <path
         d="m 177.56224,234.62751 h 5.9532 v 35.7192 h -5.9532 z m 5.9532,-5.9532 h -5.9532 v -5.9532 h 5.9532 z"
         style="font-style:normal;font-variant:normal;font-weight:normal;font-stretch:normal;font-size:63.5008px;font-family:Michroma;-inkscape-font-specification:'Michroma, Normal';font-variant-ligatures:normal;font-variant-caps:normal;font-variant-numeric:normal;font-variant-east-asian:normal;fill:#ffffff;fill-opacity:1;stroke-width:0.26458"
         id="path906" />
      <path
         d="m 229.00161,265.44772 q -0.093,0.37208 -1.39528,1.86038 -0.93019,1.11622 -2.4805,1.9844 -1.55032,0.83717 -4.15484,1.30226 -2.57352,0.4961 -6.79037,0.4961 -5.61213,0 -9.58093,-0.58912 -3.9688,-0.55811 -6.48031,-1.73635 -2.5115,-1.20924 -3.68974,-3.06962 -1.14723,-1.86037 -1.14723,-4.43389 0,-2.69754 0.62012,-4.55792 0.65113,-1.89138 1.86038,-3.16264 1.24025,-1.27125 2.9766,-1.9844 1.73635,-0.71314 3.93779,-1.08522 2.23245,-0.37207 4.86798,-0.46509 2.63553,-0.093 5.61213,-0.093 4.24786,0 7.10044,0.37208 2.85257,0.34106 4.65093,0.89918 1.82937,0.5271 2.75956,1.14723 0.93019,0.62012 1.33327,1.14723 0,-3.4727 -0.31006,-5.92219 -0.27906,-2.4495 -0.9612,-4.09283 -0.65113,-1.64333 -1.70534,-2.60452 -1.05421,-0.9922 -2.60453,-1.4883 -1.5193,-0.4961 -3.56572,-0.62013 -2.04641,-0.15503 -4.68194,-0.15503 -4.09282,0 -6.79037,0.21704 -2.69754,0.18604 -4.27886,0.77516 -1.58132,0.58912 -2.23245,1.64333 -0.65113,1.02321 -0.65113,2.69754 h -5.9532 q 0,-2.82156 0.9922,-4.77496 1.0232,-1.95339 3.34867,-3.16264 2.35648,-1.24025 6.17025,-1.79836 3.81377,-0.55811 9.39489,-0.55811 5.4571,0 9.23986,0.89918 3.78277,0.89918 6.10824,3.16264 2.35647,2.26345 3.37968,6.10823 1.05421,3.81377 1.05421,9.67395 v 16.8674 h -5.9532 z m -13.82879,0.93019 q 3.93779,0 6.57333,-0.37207 2.66653,-0.37208 4.27886,-1.11623 1.61232,-0.74415 2.29446,-1.86037 0.68214,-1.11623 0.68214,-2.60453 0,-1.4883 -0.80616,-2.51151 -0.77516,-1.05421 -2.63554,-1.70534 -1.82936,-0.65113 -4.86798,-0.93019 -3.03861,-0.31006 -7.50351,-0.31006 -4.4649,0 -7.22446,0.15503 -2.72855,0.15503 -4.21685,0.71314 -1.4883,0.55812 -2.0154,1.64334 -0.4961,1.08522 -0.4961,2.94559 0,1.86038 0.5271,3.03861 0.55812,1.14723 2.23245,1.79837 1.67434,0.65113 4.80597,0.89918 3.16264,0.21704 8.37169,0.21704 z"
         style="font-style:normal;font-variant:normal;font-weight:normal;font-stretch:normal;font-size:63.5008px;font-family:Michroma;-inkscape-font-specification:'Michroma, Normal';font-variant-ligatures:normal;font-variant-caps:normal;font-variant-numeric:normal;font-variant-east-asian:normal;fill:#ffffff;fill-opacity:1;stroke-width:0.26458"
         id="path908" />
    </g>
    <text
       id="text24"
       xml:space="preserve"
       style="line-height:1.25;white-space:pre;shape-inside:url(#rect897);"
       font-size="10.583px"
       font-family="Michroma" />
  </g>
</svg>
