<?xml version="1.0" encoding="UTF-8"?>
<svg width="376.74mm" height="158mm" version="1.1" viewBox="0 0 376.74473 157.99667" xmlns="http://www.w3.org/2000/svg" xmlns:cc="http://creativecommons.org/ns#" xmlns:dc="http://purl.org/dc/elements/1.1/" xmlns:osb="http://www.openswatchbook.org/uri/2009/osb" xmlns:rdf="http://www.w3.org/1999/02/22-rdf-syntax-ns#" xmlns:xlink="http://www.w3.org/1999/xlink">
<defs>
<linearGradient id="b" x1="77.48" x2="551.69" y1="376.26" y2="376.26" gradientTransform="matrix(.26458 0 0 .26458 14.219 39.663)" gradientUnits="userSpaceOnUse">
<stop offset="0"/>
</linearGradient>
<linearGradient id="a" x1="44.876" x2="173.12" y1="100" y2="100" gradientUnits="userSpaceOnUse">
<stop stop-color="#e5e5e5" offset="0"/>
<stop stop-color="#e5e5e5" stop-opacity="0" offset="1"/>
</linearGradient>
</defs>
<metadata>
<rdf:RDF>
<cc:Work rdf:about="">
<dc:format>image/svg+xml</dc:format>
<dc:type rdf:resource="http://purl.org/dc/dcmitype/StillImage"/>
<dc:title/>
</cc:Work>
</rdf:RDF>
</metadata>
<g transform="translate(-34.575 -60.215)">
<path transform="translate(13.69 39.663)" d="m67.657 149.07c13.597-9.24 23.726-21.075 25.264-31.117-6.9046 8.0024-16.995 13.232-30.211 17.958zm21.926 12.086c9.0261-13.74 13.854-28.55 11.432-38.417-3.3166 10.036-10.638 18.729-21.04 28.152zm24.882 2.775c3.0809-16.148 1.8741-31.679-4.1392-39.867 0.77625 10.541-2.6608 21.374-8.6647 34.061zm24.05-6.9582c-3.3333-16.098-10.392-29.985-19.081-35.249 4.751 9.4414 5.7213 20.765 5.0293 34.784zm19.557-15.632c-9.24-13.597-21.075-23.726-31.117-25.264 8.0024 6.9046 13.232 16.995 17.958 30.211zm12.086-21.926c-13.74-9.0261-28.55-13.854-38.417-11.432 10.036 3.3166 18.729 10.638 28.152 21.04zm2.775-24.882c-16.148-3.0809-31.679-1.8741-39.867 4.1392 10.541-0.77625 21.374 2.6608 34.061 8.6647zm-6.9582-24.05c-16.098 3.3333-29.985 10.392-35.249 19.081 9.4414-4.751 20.765-5.7213 34.784-5.0293zm-15.632-19.557c-13.597 9.24-23.726 21.075-25.264 31.117 6.9046-8.0024 16.995-13.232 30.211-17.958zm-21.926-12.086c-9.0261 13.74-13.854 28.55-11.432 38.417 3.3166-10.036 10.638-18.729 21.04-28.152zm-24.882-2.775c-3.0809 16.148-1.8741 31.679 4.1392 39.867-0.77625-10.541 2.6608-21.374 8.6647-34.061zm-24.05 6.9582c3.3333 16.098 10.392 29.985 19.081 35.249-4.751-9.4414-5.7213-20.765-5.0293-34.784zm-19.557 15.632c9.24 13.597 21.075 23.726 31.117 25.264-8.0024-6.9046-13.232-16.995-17.958-30.211zm-12.086 21.926c13.74 9.0261 28.55 13.854 38.417 11.432-10.036-3.3166-18.729-10.638-28.152-21.04zm-2.775 24.882c16.148 3.0809 31.679 1.8741 39.867-4.1392-10.541 0.77625-21.374-2.6608-34.061-8.6647zm6.9582 24.05c16.098-3.3333 29.985-10.392 35.249-19.081-9.4414 4.751-20.765 5.7213-34.784 5.0293z" fill="url(#a)" stroke="#000" stroke-width=".26577px" style="mix-blend-mode:normal"/>
<path d="m113.57 60.359a78.855 78.855 0 0 0 -78.855 78.855 78.855 78.855 0 0 0 78.855 78.855 78.855 78.855 0 0 0 43.322 -12.967 74.557 74.557 0 0 1 -35.277 8.8739 74.557 74.557 0 0 1 -74.557 -74.557 74.557 74.557 0 0 1 74.557 -74.557 74.557 74.557 0 0 1 38.569 10.751 78.855 78.855 0 0 0 -46.614 -15.253z" fill="#e5e5e5" fill-rule="evenodd" opacity=".87" stroke="url(#b)" stroke-width=".28744"/>
<path d="m152.39 99.817a46.117 46.117 0 0 1 -46.117 46.117 46.117 46.117 0 0 1 -46.117 -46.117 46.117 46.117 0 0 1 46.117 -46.117 46.117 46.117 0 0 1 46.117 46.117z" display="none" fill="#f00" fill-opacity=".44716" fill-rule="evenodd" stroke-width=".49121"/>
<text x="195.74368" y="154.52832" fill="#e5e5e5" fill-opacity=".8" font-family="Michroma" font-size="51.153px" stroke-width=".26458" style="line-height:1.25" xml:space="preserve"><tspan x="195.74368" y="154.52832" fill="#e5e5e5" fill-opacity=".8" font-size="51.153px" stroke-width=".26458">aerelia</tspan></text>
<text font-family="Michroma" font-size="10.583px" style="line-height:1.25;shape-inside:url(#rect897);white-space:pre" xml:space="preserve"/>
</g>
</svg>
