<?xml version="1.0" encoding="UTF-8" standalone="no"?>
<svg
   xmlns:dc="http://purl.org/dc/elements/1.1/"
   xmlns:cc="http://creativecommons.org/ns#"
   xmlns:rdf="http://www.w3.org/1999/02/22-rdf-syntax-ns#"
   xmlns:svg="http://www.w3.org/2000/svg"
   xmlns="http://www.w3.org/2000/svg"
   xmlns:sodipodi="http://sodipodi.sourceforge.net/DTD/sodipodi-0.dtd"
   xmlns:inkscape="http://www.inkscape.org/namespaces/inkscape"
   inkscape:version="1.0 (4035a4fb49, 2020-05-01)"
   sodipodi:docname="aerelia-logo-turbine.svg"
   id="svg28"
   viewBox="0 0 152.24247 157.99212"
   version="1.1"
   height="157.99545mm"
   width="152.24055mm">
  <sodipodi:namedview
     inkscape:current-layer="g26"
     inkscape:window-maximized="1"
     inkscape:window-y="-8"
     inkscape:window-x="-8"
     inkscape:cy="298.57157"
     inkscape:cx="711.96365"
     inkscape:zoom="0.73670947"
     showgrid="false"
     id="namedview30"
     inkscape:window-height="1017"
     inkscape:window-width="1920"
     inkscape:pageshadow="2"
     inkscape:pageopacity="0"
     guidetolerance="10"
     gridtolerance="10"
     objecttolerance="10"
     borderopacity="1"
     bordercolor="#666666"
     pagecolor="#ffffff" />
  <defs
     id="defs10">
	<linearGradient id="MyGradient">
	  <stop offset="5%" stop-color="#F60" />
	  <stop offset="95%" stop-color="#FF6" />
    </linearGradient>
    <linearGradient
       gradientUnits="userSpaceOnUse"
       gradientTransform="matrix(0.26458,0,0,0.26458,14.219,39.663)"
       y2="376.26001"
       y1="376.26001"
       x2="551.69"
       x1="77.480003"
       id="b">
      <stop
         id="stop2"
         offset="0" />
    </linearGradient>
    <linearGradient
       gradientUnits="userSpaceOnUse"
       y2="100"
       y1="100"
       x2="173.12"
       x1="44.875999"
       id="a">
      <stop
         id="stop5"
         offset="0"
         stop-color="#e5e5e5" />
      <stop
         id="stop7"
         offset="1"
         stop-opacity="0"
         stop-color="#e5e5e5" />
    </linearGradient>
  </defs>
  <metadata
     id="metadata12">
    <rdf:RDF>
      <cc:Work
         rdf:about="">
        <dc:format>image/svg+xml</dc:format>
        <dc:type
           rdf:resource="http://purl.org/dc/dcmitype/StillImage" />
        <dc:title></dc:title>
      </cc:Work>
    </rdf:RDF>
  </metadata>
  <g
     id="g26"
     transform="translate(-34.57128,-60.217938)
	 fill="url(#MyGradient)">
    <path
       id="path14"
       style="mix-blend-mode:normal;fill:url(#a)"
       stroke-width="0.26577px"
       stroke="#000000"
       d="m 67.657,149.07 c 13.597,-9.24 23.726,-21.075 25.264,-31.117 -6.9046,8.0024 -16.995,13.232 -30.211,17.958 z m 21.926,12.086 c 9.0261,-13.74 13.854,-28.55 11.432,-38.417 -3.3166,10.036 -10.638,18.729 -21.04,28.152 z m 24.882,2.775 c 3.0809,-16.148 1.8741,-31.679 -4.1392,-39.867 0.77625,10.541 -2.6608,21.374 -8.6647,34.061 z m 24.05,-6.9582 c -3.3333,-16.098 -10.392,-29.985 -19.081,-35.249 4.751,9.4414 5.7213,20.765 5.0293,34.784 z m 19.557,-15.632 c -9.24,-13.597 -21.075,-23.726 -31.117,-25.264 8.0024,6.9046 13.232,16.995 17.958,30.211 z m 12.086,-21.926 c -13.74,-9.0261 -28.55,-13.854 -38.417,-11.432 10.036,3.3166 18.729,10.638 28.152,21.04 z m 2.775,-24.882 c -16.148,-3.0809 -31.679,-1.8741 -39.867,4.1392 10.541,-0.77625 21.374,2.6608 34.061,8.6647 z m -6.9582,-24.05 c -16.098,3.3333 -29.985,10.392 -35.249,19.081 9.4414,-4.751 20.765,-5.7213 34.784,-5.0293 z m -15.632,-19.557 c -13.597,9.24 -23.726,21.075 -25.264,31.117 6.9046,-8.0024 16.995,-13.232 30.211,-17.958 z m -21.926,-12.086 c -9.0261,13.74 -13.854,28.55 -11.432,38.417 3.3166,-10.036 10.638,-18.729 21.04,-28.152 z m -24.882,-2.775 c -3.0809,16.148 -1.8741,31.679 4.1392,39.867 -0.77625,-10.541 2.6608,-21.374 8.6647,-34.061 z m -24.05,6.9582 c 3.3333,16.098 10.392,29.985 19.081,35.249 -4.751,-9.4414 -5.7213,-20.765 -5.0293,-34.784 z m -19.557,15.632 c 9.24,13.597 21.075,23.726 31.117,25.264 -8.0024,-6.9046 -13.232,-16.995 -17.958,-30.211 z m -12.086,21.926 c 13.74,9.0261 28.55,13.854 38.417,11.432 -10.036,-3.3166 -18.729,-10.638 -28.152,-21.04 z m -2.775,24.882 c 16.148,3.0809 31.679,1.8741 39.867,-4.1392 -10.541,0.77625 -21.374,-2.6608 -34.061,-8.6647 z m 6.9582,24.05 c 16.098,-3.3333 29.985,-10.392 35.249,-19.081 -9.4414,4.751 -20.765,5.7213 -34.784,5.0293 z"
       transform="translate(13.69,39.663)" />
    <path
       style="stroke:none"
       id="path16"
       stroke-width="0.28744"
       stroke="none)"
       opacity="0.87"
       fill-rule="evenodd"
       d="m 113.57,60.359 a 78.855,78.855 0 0 0 -78.855,78.855 78.855,78.855 0 0 0 78.855,78.855 78.855,78.855 0 0 0 43.322,-12.967 74.557,74.557 0 0 1 -35.277,8.8739 74.557,74.557 0 0 1 -74.557,-74.557 74.557,74.557 0 0 1 74.557,-74.557 74.557,74.557 0 0 1 38.569,10.751 78.855,78.855 0 0 0 -46.614,-15.253 z" />
  </g>
</svg>
