<?xml version="1.0" encoding="UTF-8" standalone="no"?>
<svg
   xmlns:dc="http://purl.org/dc/elements/1.1/"
   xmlns:cc="http://creativecommons.org/ns#"
   xmlns:rdf="http://www.w3.org/1999/02/22-rdf-syntax-ns#"
   xmlns:svg="http://www.w3.org/2000/svg"
   xmlns="http://www.w3.org/2000/svg"
   xmlns:sodipodi="http://sodipodi.sourceforge.net/DTD/sodipodi-0.dtd"
   xmlns:inkscape="http://www.inkscape.org/namespaces/inkscape"
   inkscape:version="1.0.1 (3bc2e813f5, 2020-09-07)"
   sodipodi:docname="aerelia-logo2-black.svg"
   id="svg28"
   viewBox="0 0 263.80117 175.68014"
   version="1.1"
   height="175.68385mm"
   width="263.79785mm">
  <sodipodi:namedview
     inkscape:current-layer="g26"
     inkscape:window-maximized="1"
     inkscape:window-y="-9"
     inkscape:window-x="-9"
     inkscape:cy="395.66703"
     inkscape:cx="358.04682"
     inkscape:zoom="0.52093226"
     showgrid="false"
     id="namedview30"
     inkscape:window-height="1001"
     inkscape:window-width="1920"
     inkscape:pageshadow="2"
     inkscape:pageopacity="0"
     guidetolerance="10"
     gridtolerance="10"
     objecttolerance="10"
     borderopacity="1"
     bordercolor="#666666"
     pagecolor="#ffffff"
     inkscape:document-rotation="0" />
  <defs
     id="defs10">
    <linearGradient
       gradientUnits="userSpaceOnUse"
       gradientTransform="matrix(0.26458,0,0,0.26458,14.219,39.663)"
       y2="376.26001"
       y1="376.26001"
       x2="551.69"
       x1="77.480003"
       id="b">
      <stop
         id="stop2"
         offset="0" />
    </linearGradient>
    <linearGradient
       gradientUnits="userSpaceOnUse"
       y2="100"
       y1="100"
       x2="173.12"
       x1="44.875999"
       id="a">
      <stop
         id="stop5"
         offset="0"
         stop-color="#e5e5e5" />
      <stop
         id="stop7"
         offset="1"
         stop-opacity="0"
         stop-color="#e5e5e5" />
    </linearGradient>
  </defs>
  <metadata
     id="metadata12">
    <rdf:RDF>
      <cc:Work
         rdf:about="">
        <dc:format>image/svg+xml</dc:format>
        <dc:type
           rdf:resource="http://purl.org/dc/dcmitype/StillImage" />
        <dc:title></dc:title>
      </cc:Work>
    </rdf:RDF>
  </metadata>
  <g
     id="g26"
     transform="translate(28.81537,-95.407662)">
    <path
       id="path14"
       style="mix-blend-mode:normal;fill:#000000;fill-opacity:1;stroke:none"
       stroke-width="0.777783"
       stroke="#000000"
       fill="url(#a)"
       d="M 70.984594,195.25195 C 81.560115,188.06523 89.438283,178.86016 90.634514,171.04966 85.26423,177.2738 77.416085,181.34129 67.1369,185.0171 Z m 17.053679,9.40029 c 7.02035,-10.68675 10.775411,-22.20572 8.891619,-29.88011 -2.579596,7.80584 -8.274059,14.56711 -16.364562,21.89616 z m 19.352807,2.15835 c 2.39627,-12.55965 1.45764,-24.6394 -3.2194,-31.00789 0.60375,8.19861 -2.06953,16.62434 -6.739262,26.49208 z m 18.70569,-5.41198 c -2.59259,-12.52075 -8.08273,-23.32183 -14.84089,-27.41608 3.69525,7.34336 4.44994,16.15067 3.91171,27.05441 z m 15.21111,-12.15831 c -7.18672,-10.57552 -16.39179,-18.45368 -24.20229,-19.64992 6.22414,5.37029 10.29163,13.21843 13.96744,23.49762 z m 9.40029,-17.05367 c -10.68675,-7.02036 -22.20572,-10.77542 -29.88011,-8.89162 7.80584,2.57959 14.56711,8.27406 21.89616,16.36456 z m 2.15835,-19.35281 c -12.55965,-2.39627 -24.6394,-1.45764 -31.00789,3.2194 8.19861,-0.60375 16.62434,2.06953 26.49208,6.73926 z m -5.41198,-18.70569 c -12.52075,2.59258 -23.32183,8.08272 -27.41608,14.84088 7.34336,-3.69524 16.15067,-4.44993 27.05442,-3.9117 z m -12.15831,-15.21111 c -10.57552,7.18672 -18.45368,16.39178 -19.64991,24.20229 5.37028,-6.22414 13.21842,-10.29163 23.49761,-13.96744 z m -17.05367,-9.40029 c -7.02035,10.68674 -10.77541,22.20572 -8.89162,29.8801 2.57959,-7.80583 8.27406,-14.5671 16.36456,-21.89615 z m -19.352809,-2.15835 c -2.396273,12.55965 -1.457644,24.6394 3.219399,31.00789 -0.60375,-8.19861 2.06953,-16.62434 6.73926,-26.49208 z m -18.70569,5.41197 c 2.592585,12.52076 8.082724,23.32184 14.840884,27.41609 -3.695249,-7.34336 -4.449932,-16.15067 -3.911706,-27.05442 z m -15.21111,12.15831 c 7.186718,10.57552 16.391785,18.45369 24.202285,19.64992 -6.224133,-5.37028 -10.291629,-13.21843 -13.967433,-23.49761 z m -9.40029,17.05368 c 10.686744,7.02035 22.205716,10.77541 29.880104,8.89162 -7.805834,-2.5796 -14.567105,-8.27406 -21.896157,-16.36456 z m -2.158349,19.35281 c 12.559646,2.39627 24.6394,1.45764 31.00789,-3.2194 -8.198614,0.60375 -16.624342,-2.06953 -26.492079,-6.73926 z m 5.411973,18.70569 c 12.520756,-2.59259 23.321834,-8.08273 27.416086,-14.84089 -7.343364,3.69525 -16.150672,4.44993 -27.054417,3.91171 z" />
    <path
       style="fill:#000000;fill-opacity:1;stroke:none"
       id="path16"
       stroke-width="0.777783"
       stroke="url(#b)"
       opacity="0.87"
       fill-rule="evenodd"
       fill="#e5e5e5"
       d="M 96.047108,95.404784 A 61.332108,61.332108 0 0 0 34.715,156.73689 61.332108,61.332108 0 0 0 96.047108,218.069 a 61.332108,61.332108 0 0 0 33.695132,-10.08552 57.989195,57.989195 0 0 1 -27.43786,6.90197 57.989195,57.989195 0 0 1 -57.9892,-57.98919 57.989195,57.989195 0 0 1 57.9892,-57.989195 57.989195,57.989195 0 0 1 29.99832,8.361945 61.332108,61.332108 0 0 0 -36.255592,-11.863526 z" />
    <path
       id="path18"
       stroke-width="0.49121"
       fill-rule="evenodd"
       fill-opacity="0.44716"
       fill="#ff0000"
       display="none"
       d="M 152.39,99.817 A 46.117,46.117 0 0 1 106.273,145.934 46.117,46.117 0 0 1 60.156,99.817 46.117,46.117 0 0 1 106.273,53.7 46.117,46.117 0 0 1 152.39,99.817 Z" />
    <text
       id="text22"
       xml:space="preserve"
       style="font-style:normal;font-variant:normal;font-weight:normal;font-stretch:normal;font-size:63.5008px;line-height:1.25;font-family:Michroma;-inkscape-font-specification:'Michroma, Normal';font-variant-ligatures:normal;font-variant-caps:normal;font-variant-numeric:normal;font-variant-east-asian:normal;fill:#ffffff;fill-opacity:1;stroke-width:0.26458"
       stroke-width=".26458"
       font-size="51.153px"
       font-family="Michroma"
       fill-opacity=".8"
       fill="#e5e5e5"
       y="270.34671"
       x="-32.629139"><tspan
         style="font-style:normal;font-variant:normal;font-weight:normal;font-stretch:normal;font-size:63.5008px;font-family:Michroma;-inkscape-font-specification:'Michroma, Normal';font-variant-ligatures:normal;font-variant-caps:normal;font-variant-numeric:normal;font-variant-east-asian:normal;fill:#000000;fill-opacity:1"
         id="tspan20"
         stroke-width="0.26458"
         font-size="51.153px"
         fill-opacity="0.8"
         fill="#e5e5e5"
         y="270.34671"
         x="-32.629139">aerelia</tspan></text>
    <text
       id="text24"
       xml:space="preserve"
       style="line-height:1.25;white-space:pre;shape-inside:url(#rect897);"
       font-size="10.583px"
       font-family="Michroma" />
  </g>
</svg>
