<?xml version="1.0" encoding="UTF-8" standalone="no"?>
<svg
   xmlns:dc="http://purl.org/dc/elements/1.1/"
   xmlns:cc="http://creativecommons.org/ns#"
   xmlns:rdf="http://www.w3.org/1999/02/22-rdf-syntax-ns#"
   xmlns:svg="http://www.w3.org/2000/svg"
   xmlns="http://www.w3.org/2000/svg"
   xmlns:sodipodi="http://sodipodi.sourceforge.net/DTD/sodipodi-0.dtd"
   xmlns:inkscape="http://www.inkscape.org/namespaces/inkscape"
   height="512pt"
   viewBox="-78 0 511 512"
   width="512pt"
   version="1.1"
   id="svg6"
   sodipodi:docname="contact.svg"
   inkscape:version="1.0.1 (3bc2e813f5, 2020-09-07)">
  <metadata
     id="metadata12">
    <rdf:RDF>
      <cc:Work
         rdf:about="">
        <dc:format>image/svg+xml</dc:format>
        <dc:type
           rdf:resource="http://purl.org/dc/dcmitype/StillImage" />
        <dc:title></dc:title>
      </cc:Work>
    </rdf:RDF>
  </metadata>
  <defs
     id="defs10" />
  <sodipodi:namedview
     pagecolor="#ffffff"
     bordercolor="#666666"
     borderopacity="1"
     objecttolerance="10"
     gridtolerance="10"
     guidetolerance="10"
     inkscape:pageopacity="0"
     inkscape:pageshadow="2"
     inkscape:window-width="1920"
     inkscape:window-height="1001"
     id="namedview8"
     showgrid="false"
     inkscape:zoom="1.2158203"
     inkscape:cx="341.33333"
     inkscape:cy="341.33333"
     inkscape:window-x="-9"
     inkscape:window-y="-9"
     inkscape:window-maximized="1"
     inkscape:current-layer="svg6" />
  <ellipse
     style="fill:#ffffff;fill-opacity:1;stroke-width:0.75"
     id="path837"
     cx="178.73372"
     cy="176.42407"
     rx="62.303616"
     ry="61.069878" />
  <path
     d="m178.46875 252.285156c-19.445312 0-38.894531-7.402344-53.695312-22.207031-29.609376-29.605469-29.609376-77.78125 0-107.390625 14.339843-14.34375 33.410156-22.242188 53.695312-22.242188s39.351562 7.902344 53.695312 22.242188c29.609376 29.609375 29.609376 77.785156 0 107.390625-14.804687 14.804687-34.25 22.207031-53.695312 22.207031zm0-121.78125c-11.753906 0-23.507812 4.472656-32.457031 13.421875-17.898438 17.898438-17.898438 47.019531 0 64.917969 8.667969 8.667969 20.195312 13.441406 32.457031 13.441406s23.789062-4.773437 32.457031-13.441406c17.898438-17.898438 17.898438-47.019531 0-64.917969-8.949219-8.949219-20.703125-13.421875-32.457031-13.421875zm0 0"
     id="path2"
     style="fill:#ffffff;fill-opacity:1" />
  <path
     d="m178.644531 512-11.613281-13.640625c-6.796875-7.988281-166.53125-197.050781-166.53125-320.390625 0-98.132812 79.835938-177.96875 177.96875-177.96875s177.96875 79.835938 177.96875 177.96875c0 117.273438-159.59375 311.984375-166.386719 320.214844zm-.175781-481.964844c-81.570312 0-147.933594 66.363282-147.933594 147.933594 0 45.84375 27.335938 112.1875 79.054688 191.863281 26.839844 41.347657 53.867187 76.363281 68.714844 94.894531 14.871093-19.039062 42.15625-55.207031 69.164062-97.339843 51.640625-80.550781 78.933594-146.054688 78.933594-189.417969 0-81.570312-66.363282-147.933594-147.933594-147.933594zm0 0"
     id="path4"
     style="fill:#ffffff;fill-opacity:1" />
</svg>
