<?xml version="1.0"?><svg width="123.547" height="123.539" xmlns="http://www.w3.org/2000/svg">
 <title>mail icon</title>
 <g>
  <title>Layer 1</title>
  <g externalResourcesRequired="false" id="svg_1">
   <path id="svg_4" fill="#ffffff" d="m104.085999,90.628998l-25.562996,-25.585999l25.561996,-25.585999l0,51.171997l0.000999,0zm-79.835999,4.859001l25.609001,-25.561996l1.093998,1.046997c6.047001,5.765999 15.656002,5.765999 21.445004,0l1.101997,-1.094002l25.726997,25.609001l-74.976997,0zm-4.594,-56.030998l25.524,25.585999l-25.57,25.585999l0.046,-51.171997zm79.524,-4.882999l-31.445999,31.421993c-3.195,3.219002 -8.914001,3.148003 -12.203003,-0.125l-31.233997,-31.296993l74.882999,0zm-86.469,-6.984001c0,2.93 0,71.827999 0,74.781002c2.976999,0 95.578001,0 98.554998,0c0,-2.953003 0,-71.852003 0,-74.781002c-2.976997,0 -95.577999,0 -98.554998,0z"/>
  </g>
 </g>
</svg>